# xmcd
#
# Track frame offsets:
#	150
#	19277
#	37335
#	55042
#	76084
#	90530
#	106775
#	124332
#	144342
#	160633
#	180699
#	195909
#	215762
#	237824
#	251451
#
# Disc length: 3600 seconds
#
# Revision: 1
# Processed by: cddbd v1.5.2PL0 Copyright (c) Steve Scherf et al.
# Submitted via: EasyCDDAExtractor 15.3.0.1
#
DISCID=bf0e0e0f
DTITLE=Ednita Nazario - 30 Del Recuerdo - CD 1
DYEAR=2006
DGENRE=Latin
TTITLE0=Como Antes
TTITLE1=Espiritu Libre
TTITLE2=Eres Libre
TTITLE3=Lo Que Son Las Cosas
TTITLE4=Mirame
TTITLE5=No Voy A Llorar
TTITLE6=Quien Te Robo El Corazon
TTITLE7=Aqui Estoy Yo
TTITLE8=Perdiendo Tu Amor
TTITLE9=Quiero Que Me Hagas El Amor
TTITLE10=Mio
TTITLE11=Ahora Es Tarde Ya
TTITLE12=Mas Grande Que Grande
TTITLE13=Vete Vete
TTITLE14=Dime Tu
EXTD=
EXTT0=
EXTT1=
EXTT2=
EXTT3=
EXTT4=
EXTT5=
EXTT6=
EXTT7=
EXTT8=
EXTT9=
EXTT10=
EXTT11=
EXTT12=
EXTT13=
EXTT14=
PLAYORDER=
